# xmcd CD database file
#
# Track frame offsets:
#	150
#	23512
#	47137
#
# Disc length: 937 seconds
#
# Revision: 1
# Processed by: cddbd v1.5.1PL0 Copyright (c) Steve Scherf et al.
# Submitted via: CDex 1.51
#
DISCID=1903a703
DTITLE=杏里 - 夏の月
DYEAR=1998
DGENRE=J-POP
TTITLE0=夏の月
TTITLE1=First Season
TTITLE2=夏の月[Instrumental]
EXTD=YEAR: 1998
EXTT0=
EXTT1=
EXTT2=
PLAYORDER=
